<?xml version="1.0" encoding="utf-8"?>
<!-- Generator: Adobe Illustrator 24.2.1, SVG Export Plug-In . SVG Version: 6.00 Build 0)  -->
<svg version="1.1" id="Layer_1" xmlns="http://www.w3.org/2000/svg" xmlns:xlink="http://www.w3.org/1999/xlink" x="0px" y="0px"
	 viewBox="0 0 512 512" style="enable-background:new 0 0 512 512;" xml:space="preserve">
<style type="text/css">
	.st0{fill:#E2E3E4;}
	.st1{fill:#B2D235;}
	.st2{fill:none;stroke:#000000;stroke-width:21.3333;stroke-linejoin:round;stroke-miterlimit:85.3332;}
	.st3{fill:none;}
</style>
<rect class="st0" width="512" height="512"/>
<g>
	<path class="st1" d="M282.3,443.8V238.6c-13.8,1.1-25.6,4.2-35.5,8.3v197c0,12.3,6.3,22.6,14.6,24.7h6.3
		C276,466.4,282.3,456.2,282.3,443.8z"/>
	<path class="st1" d="M197.5,93C180.4,82.6,173.2,73,173.2,73c-73.8,43.7-77.5,148.9-3.7,192.3c0,0,8-10,26.4-20.5
		c10-5.7,23-11.6,39.5-16.2c14.2-4,31.1-6.9,50.7-8c19.6-1,42.1-0.1,67.6,3.7V113.9C272.3,126.1,223.4,108.7,197.5,93z"/>
</g>
<g transform="scale(21.3333)">
	<path class="st2" d="M14.2,10v10.7c0,0.7-0.6,1.3-1.3,1.3c-0.7,0-1.3-0.6-1.3-1.3V10.4"/>
	<path class="st2" d="M17.6,10.2c-6.9-1.1-9.5,2.2-9.5,2.2C4.4,10.1,4.6,4.4,8.4,2c0,0,2.3,3.3,9.3,2.2V10.2z"/>
	<path class="st2" d="M9.5,11.3c-1.9-2.3-1.8-6,0.1-8.2"/>
	<path class="st3" d="M1.6,1.6h20.8v20.8H1.6V1.6z"/>
</g>
</svg>
